<svg width="831" height="381" viewBox="0 0 831 381" fill="none" xmlns="http://www.w3.org/2000/svg">
<path d="M0.726746 309.328C0.726746 309.328 102.918 329.042 166.102 316.285C342.604 280.65 375.833 117.971 544.804 56.297C651.083 17.5061 716.184 4.76288 829.419 0.585236" stroke="white" stroke-opacity="0.45"/>
<path d="M2.14215 324.693C143.042 375.712 242.903 334.169 380.326 290.994C556.626 235.605 662.248 119.232 830.395 150.942" stroke="white" stroke-opacity="0.45"/>
<path d="M0.7724 309.65C3.04498 310.473 103.882 329.627 166.955 316.979C339.691 282.19 373.761 124.075 539.499 63.6942C648.036 24.3678 714.444 8.28174 829.451 5.26178" stroke="white" stroke-opacity="0.45"/>
<path d="M0.818054 309.972C5.36322 311.618 104.845 330.213 167.808 317.672C336.778 283.729 371.69 130.179 534.193 71.0914C644.989 31.2296 712.704 11.8006 829.482 9.93835" stroke="white" stroke-opacity="0.45"/>
<path d="M0.863708 310.294C7.68146 312.763 105.808 330.798 168.66 318.366C333.864 285.269 369.618 136.283 528.887 78.4886C641.942 38.0914 710.964 15.3195 829.514 14.6149" stroke="white" stroke-opacity="0.45"/>
<path d="M0.909363 310.622C9.99969 313.913 106.772 331.389 169.513 319.065C330.951 286.814 367.547 142.393 523.581 85.8916C638.895 44.959 709.225 18.8442 829.545 19.2973" stroke="white" stroke-opacity="0.45"/>
<path d="M0.955017 311.001C12.3179 315.115 107.735 332.032 170.366 319.816C328.038 288.411 365.475 148.554 518.276 93.346C635.848 51.878 707.485 22.4203 829.577 24.031" stroke="white" stroke-opacity="0.45"/>
<path d="M1.00067 311.423C14.6362 316.36 108.698 332.717 171.219 320.609C325.125 290.051 363.403 154.758 512.97 100.843C632.801 58.84 705.745 26.0394 829.608 28.8078" stroke="white" stroke-opacity="0.45"/>
<path d="M1.04633 311.874C16.9544 317.635 109.662 333.432 172.071 321.432C322.211 291.72 361.332 160.992 507.664 108.37C629.754 65.8312 704.005 29.6877 829.639 33.6138" stroke="white" stroke-opacity="0.45"/>
<path d="M1.09204 312.347C19.2727 318.93 110.625 334.167 172.924 322.276C319.298 293.41 359.26 167.246 502.358 115.917C626.707 72.8432 702.265 33.3567 829.671 38.4405" stroke="white" stroke-opacity="0.45"/>
<path d="M1.1377 312.834C21.5909 320.24 111.588 334.918 173.777 323.135C316.385 295.115 357.189 173.516 497.053 123.48C623.66 79.8706 700.525 37.0412 829.702 43.2827" stroke="white" stroke-opacity="0.45"/>
<path d="M1.18335 313.334C23.9092 321.562 112.552 335.681 174.63 324.006C313.472 296.832 355.117 179.797 491.747 131.055C620.613 86.9098 698.785 40.7375 829.734 48.1367" stroke="white" stroke-opacity="0.45"/>
<path d="M1.229 313.842C26.2274 322.894 113.515 336.453 175.483 324.886C310.558 298.558 353.046 186.088 486.441 138.639C617.566 93.9581 697.045 44.443 829.765 52.9998" stroke="white" stroke-opacity="0.45"/>
<path d="M1.27466 314.358C28.5457 324.233 114.479 337.232 176.335 325.773C307.645 300.291 350.974 192.386 481.135 146.23C614.519 101.014 695.306 48.1558 829.797 57.8703" stroke="white" stroke-opacity="0.45"/>
<path d="M1.32031 314.88C30.8639 325.577 115.442 338.018 177.188 326.666C304.732 302.031 348.902 198.69 475.829 153.827C611.472 108.076 693.566 51.8745 829.828 62.7467" stroke="white" stroke-opacity="0.45"/>
<path d="M1.36597 315.407C33.1821 326.927 116.405 338.808 178.041 327.565C301.819 303.775 346.831 204.999 470.524 161.429C608.425 115.142 691.826 55.5982 829.86 67.6281" stroke="white" stroke-opacity="0.45"/>
<path d="M1.41162 315.937C35.5004 328.281 117.369 339.602 178.894 328.467C298.905 305.524 344.759 211.312 465.218 169.035C605.378 122.213 690.086 59.3259 829.891 72.5135" stroke="white" stroke-opacity="0.45"/>
<path d="M1.45728 316.472C37.8186 329.638 118.332 340.399 179.746 329.373C295.992 307.276 342.688 217.628 459.912 176.644C602.331 129.287 688.346 63.0571 829.923 77.4023" stroke="white" stroke-opacity="0.45"/>
<path d="M1.50293 317.009C40.1368 330.998 119.295 341.2 180.599 330.281C293.079 309.03 340.616 223.948 454.606 184.257C599.284 136.364 686.606 66.7912 829.954 82.2941" stroke="white" stroke-opacity="0.45"/>
<path d="M1.54858 317.549C42.4551 332.36 120.259 342.003 181.452 331.192C290.166 310.788 338.545 230.269 449.301 191.872C596.237 143.443 684.866 70.5278 829.986 87.1884" stroke="white" stroke-opacity="0.45"/>
<path d="M1.59424 318.09C44.7733 333.725 121.222 342.808 182.305 332.106C287.252 312.547 336.473 236.593 443.995 199.489C593.19 150.525 683.126 74.2666 830.017 92.0848" stroke="white" stroke-opacity="0.45"/>
<path d="M1.63989 318.634C47.0915 335.092 122.185 343.615 183.157 333.021C284.339 314.308 334.401 242.919 438.689 207.108C590.143 157.609 681.386 78.0072 830.048 96.9832" stroke="white" stroke-opacity="0.45"/>
<path d="M1.68555 319.18C49.4098 336.46 123.149 344.424 184.01 333.938C281.426 316.071 332.33 249.247 433.383 214.728C587.096 164.694 679.647 81.7496 830.08 101.883" stroke="white" stroke-opacity="0.45"/>
<path d="M1.7312 319.727C51.728 337.83 124.112 345.234 184.863 334.856C278.513 317.836 330.258 255.576 428.078 222.351C584.049 171.78 677.907 85.4934 830.111 106.785" stroke="white" stroke-opacity="0.45"/>
<path d="M1.77686 320.275C54.0463 339.201 125.075 346.046 185.716 335.776C275.599 319.602 328.187 261.906 422.772 229.974C581.002 178.868 676.167 89.2384 830.143 111.687" stroke="white" stroke-opacity="0.45"/>
<path d="M1.82257 320.824C56.3646 340.573 126.039 346.859 186.569 336.697C272.686 321.369 326.115 268.238 417.466 237.598C577.955 185.958 674.427 92.9847 830.174 116.591" stroke="white" stroke-opacity="0.45"/>
<path d="M1.86823 321.374C58.6828 341.946 127.002 347.672 187.421 337.619C269.773 323.137 324.044 274.57 412.16 245.224C574.908 193.048 672.687 96.7319 830.206 121.496" stroke="white" stroke-opacity="0.45"/>
<path d="M1.91388 321.926C61.001 343.321 127.966 348.487 188.274 338.541C266.86 324.905 321.972 280.903 406.854 252.851C571.861 200.139 670.947 100.48 830.237 126.402" stroke="white" stroke-opacity="0.45"/>
<path d="M1.95953 322.478C63.3193 344.696 128.929 349.303 189.127 339.465C263.946 326.675 319.9 287.238 401.549 260.478C568.814 207.231 669.207 104.229 830.269 131.309" stroke="white" stroke-opacity="0.45"/>
<path d="M2.00519 323.031C65.6375 346.071 129.892 350.119 189.98 340.389C261.033 328.446 317.829 293.573 396.243 268.106C565.767 214.323 667.467 107.979 830.3 136.216" stroke="white" stroke-opacity="0.45"/>
<path d="M2.05084 323.584C67.9557 347.448 130.856 350.936 190.832 341.314C258.12 330.217 315.757 299.908 390.937 275.735C562.72 221.417 665.728 111.729 830.332 141.124" stroke="white" stroke-opacity="0.45"/>
<path d="M2.0965 324.138C70.274 348.825 131.819 351.753 191.685 342.24C255.207 331.988 313.686 306.245 385.631 283.364C559.673 228.511 663.988 115.48 830.363 146.033" stroke="white" stroke-opacity="0.45"/>
<path d="M1.78021 75.5344C1.78021 75.5344 35.4504 120.659 148.182 105.234C260.914 89.8081 250.073 264.391 353.369 312.13C522.685 390.38 701.564 262.266 823.586 228.345" stroke="white" stroke-opacity="0.6"/>
<path d="M1.63867 117.499C1.63867 117.499 42.7205 106.462 147.129 151.875C251.537 197.289 249.019 311.032 352.315 358.771C521.631 437.022 704.106 277.369 826.129 243.448" stroke="white" stroke-opacity="0.6"/>
<path d="M1.7735 77.4765C1.7735 77.4765 35.7966 119.927 148.132 107.398C260.468 94.87 250.022 266.555 353.319 314.294C522.635 392.545 701.685 262.929 823.708 229.008" stroke="white" stroke-opacity="0.6"/>
<path d="M1.76672 79.4185C1.76672 79.4185 36.1428 119.195 148.082 109.563C260.021 99.9319 249.972 268.72 353.269 316.459C522.585 394.71 701.806 263.592 823.829 229.671" stroke="white" stroke-opacity="0.6"/>
<path d="M1.76001 81.3606C1.76001 81.3606 36.489 118.462 148.032 111.728C259.575 104.994 249.922 270.885 353.218 318.624C522.535 396.875 701.927 264.255 823.95 230.334" stroke="white" stroke-opacity="0.6"/>
<path d="M1.75323 83.3027C1.75323 83.3027 36.8352 117.73 147.982 113.893C259.128 110.056 249.872 273.05 353.168 320.789C522.484 399.039 702.048 264.918 824.071 230.997" stroke="white" stroke-opacity="0.6"/>
<path d="M1.74652 85.2447C1.74652 85.2447 37.1814 116.998 147.932 116.058C258.682 115.118 249.822 275.215 353.118 322.954C522.434 401.204 702.169 265.581 824.192 231.66" stroke="white" stroke-opacity="0.6"/>
<path d="M1.73975 87.1868C1.73975 87.1868 37.5275 116.265 147.881 118.222C258.235 120.179 249.772 277.379 353.068 325.118C522.384 403.369 702.29 266.244 824.313 232.323" stroke="white" stroke-opacity="0.6"/>
<path d="M1.73303 89.1289C1.73303 89.1289 37.8738 115.533 147.831 120.387C257.789 125.241 249.721 279.544 353.018 327.283C522.334 405.534 702.412 266.907 824.434 232.986" stroke="white" stroke-opacity="0.6"/>
<path d="M1.72632 91.0709C1.72632 91.0709 38.22 114.801 147.781 122.552C257.342 130.303 249.671 281.709 352.967 329.448C522.284 407.699 702.533 267.57 824.555 233.649" stroke="white" stroke-opacity="0.6"/>
<path d="M1.71954 93.013C1.71954 93.013 38.5662 114.068 147.731 124.717C256.895 135.365 249.621 283.874 352.917 331.613C522.234 409.863 702.654 268.233 824.676 234.312" stroke="white" stroke-opacity="0.6"/>
<path d="M1.71283 94.9551C1.71283 94.9551 38.9124 113.336 147.681 126.882C256.449 140.427 249.571 286.038 352.867 333.778C522.183 412.028 702.775 268.896 824.797 234.975" stroke="white" stroke-opacity="0.6"/>
<path d="M1.70605 96.8971C1.70605 96.8971 39.2585 112.604 147.63 129.046C256.002 145.489 249.521 288.203 352.817 335.942C522.133 414.193 702.896 269.558 824.918 235.638" stroke="white" stroke-opacity="0.6"/>
<path d="M1.69934 98.8392C1.69934 98.8392 39.6048 111.871 147.58 131.211C255.556 150.551 249.47 290.368 352.767 338.107C522.083 416.358 703.017 270.221 825.039 236.301" stroke="white" stroke-opacity="0.6"/>
<path d="M1.69257 100.781C1.69257 100.781 39.9509 111.139 147.53 133.376C255.109 155.613 249.42 292.533 352.717 340.272C522.033 418.523 703.138 270.884 825.16 236.964" stroke="white" stroke-opacity="0.6"/>
<path d="M1.68585 102.723C1.68585 102.723 40.2971 110.407 147.48 135.541C254.663 160.675 249.37 294.698 352.666 342.437C521.983 420.687 703.259 271.547 825.281 237.626" stroke="white" stroke-opacity="0.6"/>
<path d="M1.67914 104.665C1.67914 104.665 40.6434 109.675 147.43 137.706C254.216 165.737 249.32 296.862 352.616 344.602C521.932 422.852 703.38 272.21 825.402 238.289" stroke="white" stroke-opacity="0.6"/>
<path d="M1.67236 106.607C1.67236 106.607 40.9895 108.942 147.38 139.87C253.77 170.798 249.27 299.027 352.566 346.766C521.882 425.017 703.501 272.873 825.523 238.952" stroke="white" stroke-opacity="0.6"/>
<path d="M1.66565 108.55C1.66565 108.55 41.3358 108.21 147.329 142.035C253.323 175.86 249.22 301.192 352.516 348.931C521.832 427.182 703.622 273.536 825.644 239.615" stroke="white" stroke-opacity="0.6"/>
<path d="M1.65887 110.552C1.65887 110.552 41.6819 107.538 147.279 144.26C252.876 180.982 249.169 303.417 352.466 351.156C521.782 429.406 703.743 274.259 825.766 240.338" stroke="white" stroke-opacity="0.6"/>
<path d="M1.65216 112.717C1.65216 112.717 42.0281 107.028 147.229 146.648C252.43 186.267 249.119 305.805 352.415 353.544C521.732 431.794 703.864 275.145 825.887 241.224" stroke="white" stroke-opacity="0.6"/>
<path d="M1.64539 115.042C1.64539 115.042 42.3743 106.68 147.179 149.196C251.983 191.713 249.069 308.353 352.365 356.092C521.682 434.343 703.985 276.192 826.008 242.271" stroke="white" stroke-opacity="0.6"/>
<path d="M822.852 27.5221C822.852 27.5221 643.504 42.8199 536.76 82.0947C446.737 115.217 410.231 164.965 320.123 197.855C202.634 240.738 4.26324 250.774 4.26324 250.774" stroke="white" stroke-opacity="0.43"/>
<path d="M824.55 114.18C824.55 114.18 635.662 104.325 536.743 149.827C423.339 201.992 343.715 189.268 249.383 242.185C140.303 303.374 1.75299 318.588 1.75299 318.588" stroke="white" stroke-opacity="0.43"/>
<path d="M822.958 32.882C822.958 32.882 643.014 46.6077 536.759 86.2717C445.275 120.584 406.074 166.428 315.702 200.569C198.739 244.597 4.10632 254.956 4.10632 254.956" stroke="white" stroke-opacity="0.43"/>
<path d="M823.065 38.2419C823.065 38.2419 642.524 50.3955 536.758 90.4487C443.812 125.951 401.916 167.891 311.28 203.283C194.843 248.455 3.94946 259.138 3.94946 259.138" stroke="white" stroke-opacity="0.43"/>
<path d="M823.171 43.6017C823.171 43.6017 642.034 54.1833 536.757 94.6257C442.35 131.318 397.759 169.353 306.859 205.998C190.947 252.314 3.7926 263.32 3.7926 263.32" stroke="white" stroke-opacity="0.43"/>
<path d="M823.277 48.9616C823.277 48.9616 641.544 57.9711 536.755 98.8027C440.888 136.686 393.602 170.816 302.438 208.712C187.051 256.172 3.63568 267.502 3.63568 267.502" stroke="white" stroke-opacity="0.43"/>
<path d="M823.383 54.3215C823.383 54.3215 641.054 61.7588 536.754 102.98C439.425 142.053 389.445 172.279 298.016 211.427C183.156 260.031 3.47876 271.684 3.47876 271.684" stroke="white" stroke-opacity="0.43"/>
<path d="M823.489 59.6813C823.489 59.6813 640.564 65.5466 536.753 107.157C437.963 147.42 385.288 173.741 293.595 214.141C179.26 263.889 3.3219 275.866 3.3219 275.866" stroke="white" stroke-opacity="0.43"/>
<path d="M823.595 65.0412C823.595 65.0412 640.073 69.3344 536.752 111.334C436.5 152.787 381.13 175.204 289.174 216.855C175.364 267.747 3.16504 280.049 3.16504 280.049" stroke="white" stroke-opacity="0.43"/>
<path d="M823.701 70.4011C823.701 70.4011 639.583 73.1222 536.751 115.511C435.038 158.154 376.973 176.667 284.753 219.57C171.469 271.606 3.00812 284.231 3.00812 284.231" stroke="white" stroke-opacity="0.43"/>
<path d="M823.807 75.761C823.807 75.761 639.093 76.91 536.75 119.688C433.576 163.521 372.816 178.129 280.331 222.284C167.573 275.464 2.8512 288.413 2.8512 288.413" stroke="white" stroke-opacity="0.43"/>
<path d="M823.913 81.121C823.913 81.121 638.603 80.6979 536.749 123.865C432.113 168.889 368.659 179.592 275.91 224.998C163.677 279.323 2.69434 292.595 2.69434 292.595" stroke="white" stroke-opacity="0.43"/>
<path d="M824.019 86.4948C824.019 86.4948 638.113 84.4996 536.748 128.056C430.651 174.27 364.501 181.069 271.489 227.727C159.781 283.195 2.53748 296.791 2.53748 296.791" stroke="white" stroke-opacity="0.43"/>
<path d="M824.126 91.9102C824.126 91.9102 637.623 88.3429 536.747 132.288C429.189 179.693 360.344 182.587 267.068 230.497C155.886 287.109 2.38055 301.029 2.38055 301.029" stroke="white" stroke-opacity="0.43"/>
<path d="M824.232 97.3825C824.232 97.3825 637.133 92.2432 536.746 136.578C427.726 185.172 356.187 184.162 262.646 233.323C151.99 291.08 2.22363 305.323 2.22363 305.323" stroke="white" stroke-opacity="0.43"/>
<path d="M824.338 102.918C824.338 102.918 636.643 96.2065 536.745 140.93C426.264 190.715 352.03 185.8 258.225 236.213C148.094 295.114 2.06677 309.681 2.06677 309.681" stroke="white" stroke-opacity="0.43"/>
<path d="M824.444 108.518C824.444 108.518 636.152 100.234 536.744 145.347C424.802 196.322 347.873 187.503 253.804 239.168C144.198 299.213 1.90991 314.103 1.90991 314.103" stroke="white" stroke-opacity="0.43"/>
</svg>
